<?xml version="1.0" encoding="utf-8"?>
<!-- Generator: Adobe Illustrator 26.5.0, SVG Export Plug-In . SVG Version: 6.00 Build 0)  -->
<svg version="1.1" id="Layer_1" xmlns="http://www.w3.org/2000/svg" xmlns:xlink="http://www.w3.org/1999/xlink" x="0px" y="0px"
	 viewBox="0 0 59.9 65" style="enable-background:new 0 0 59.9 65;" xml:space="preserve">
<style type="text/css">
	.st0{fill:none;}
	.st1{fill:#FFFFFF;}
</style>
<rect class="st0" width="0.01" height="0.01"/>
<path class="st1" d="M26.7,60L26.7,60l-3.4-7h-1.9v10H23v-7.2h0l3.5,7.2h1.8V53h-1.7V60L26.7,60z M18.7,45.9l-1.5,5.4h1l0.3-1.1H20
	l0.3,1.1h1l-1.5-5.4C19.7,45.9,18.7,45.9,18.7,45.9z M18.6,49.3l0.6-2.1h0l0.5,2.1H18.6z M12.4,48.6c0-2.5-1.5-2.8-2.1-2.8
	c-0.6,0-2.1,0.3-2.1,2.8c0,2.5,1.5,2.8,2.1,2.8c0.3,0,0.7-0.1,1.1-0.4l0.5,0.6l0.5-0.6l-0.5-0.6C12.2,50.1,12.4,49.5,12.4,48.6
	L12.4,48.6z M11.3,49.8l-0.5-0.5l-0.5,0.6l0.4,0.5c-0.2,0.1-0.3,0.1-0.5,0.1c-0.5,0-1.2-0.4-1.2-1.9c0-1.5,0.7-1.9,1.2-1.9
	c0.5,0,1.2,0.4,1.2,1.9C11.5,49.1,11.4,49.5,11.3,49.8L11.3,49.8z M21.8,45.9v5.4h3.1v-1h-2.2v-4.4L21.8,45.9L21.8,45.9z M31.4,51.3
	h0.9v-5.4h-0.9v2h-1.7v-2h-0.9v5.4h0.9v-2.4h1.7V51.3L31.4,51.3z M14.5,58.6h4.2v-1.8h-4.2v-2.1H19V53h-6.3v10h6.5v-1.8h-4.8V58.6
	L14.5,58.6z M7.6,46.9v-1H4.4v5.4h3.3v-1H5.3V49h2.1V48H5.3v-1.1C5.3,46.9,7.6,46.9,7.6,46.9z M6.4,53H4.6v10h6.1v-1.8H6.4L6.4,53
	L6.4,53z M13.1,45.9v3.6c0,0.5,0.1,1,0.3,1.3c0.4,0.5,1,0.7,1.4,0.7c1.1,0,1.8-0.6,1.8-2v-3.5h-0.9v3.5c0,0.7-0.3,1-0.9,1
	c-0.4,0-0.8-0.3-0.8-1.1v-3.5L13.1,45.9L13.1,45.9z M46.2,51.3h0.9v-5.4h-0.9L46.2,51.3L46.2,51.3z M55.8,60.8
	c0-1.9-0.4-2.2-1.1-2.5c0.8-0.3,1.3-1.3,1.3-2.4c0-0.9-0.4-2.8-2.7-2.8h-4.3v10h1.8v-3.9h1.9c1.3,0,1.4,0.5,1.4,1.9
	c0,1,0.1,1.6,0.2,2h2v-0.3C55.8,62.6,55.8,62.2,55.8,60.8L55.8,60.8z M52.9,57.4h-2.1v-2.7H53c1.1,0,1.3,0.8,1.3,1.3
	C54.3,57,53.8,57.4,52.9,57.4L52.9,57.4z M43.8,50.5c-0.8,0-0.9-0.6-0.9-0.9H42c0,0.7,0.3,1.8,1.9,1.8c0.4,0,1.7-0.1,1.7-1.8
	c0-1-0.5-1.3-1.1-1.4l-1.1-0.3c-0.2-0.1-0.5-0.1-0.5-0.6c0-0.5,0.4-0.6,0.8-0.6c0.8,0,0.9,0.6,0.9,0.8h0.9c0-0.7-0.4-1.7-1.7-1.7
	c-1.4,0-1.7,1.1-1.7,1.7c0,1.2,0.7,1.4,1.4,1.6l0.5,0.1c0.5,0.1,0.8,0.2,0.8,0.7C44.7,50.4,44.3,50.5,43.8,50.5L43.8,50.5z
	 M51.4,51.3v-5.4h-0.8v3.7h0l-1.7-3.7h-1v5.4h0.8v-3.8h0l1.8,3.8H51.4L51.4,51.3z M54.3,46.7c0.6,0,0.9,0.7,0.9,0.9h0.9
	c0-0.7-0.6-1.8-1.9-1.8c-1.5,0-2.1,1.4-2.1,2.8c0,1.9,0.9,2.8,2,2.8c0.8,0,1.1-0.5,1.4-0.8l0.1,0.7h0.6v-2.9h-1.8v0.9h1
	c-0.2,1.1-0.8,1.2-1,1.2c-0.6,0-1.3-0.4-1.3-1.8C53,47.3,53.6,46.7,54.3,46.7L54.3,46.7z M41.4,49.4v-3.5h-0.9v3.5
	c0,0.7-0.3,1-0.9,1c-0.4,0-0.8-0.3-0.8-1.1v-3.5h-0.9v3.6c0,0.5,0.1,1,0.3,1.3c0.4,0.5,1,0.7,1.4,0.7C40.7,51.5,41.4,50.8,41.4,49.4
	L41.4,49.4z M42,58.6h4.2v-1.8H42v-2.1h4.5V53h-6.3v10h6.5v-1.8H42L42,58.6L42,58.6z M37.2,48.6c0-2.5-1.5-2.8-2.1-2.8
	c-0.6,0-2.1,0.3-2.1,2.8c0,2.5,1.5,2.8,2.1,2.8C35.7,51.4,37.2,51.1,37.2,48.6z M33.9,48.6c0-1.5,0.7-1.9,1.2-1.9
	c0.5,0,1.2,0.4,1.2,1.9c0,1.5-0.7,1.9-1.2,1.9C34.6,50.5,33.9,50.1,33.9,48.6L33.9,48.6z M34.7,53h-3.8v10h3.7
	c2.8,0,3.6-3.1,3.6-5.3C38.1,55.9,37.6,53,34.7,53L34.7,53z M34.4,61.3h-1.7v-6.6h1.7c0.8,0,2,0.2,2,3.2
	C36.3,59.6,35.8,61.3,34.4,61.3L34.4,61.3z M29.8,1.3L2,15.6v5.8l3.1,0v20.7h49.2l0-20.8h3.3v-5.8L29.8,1.3L29.8,1.3z M48.9,36.7
	H10.6V18.2l19.2-9.9l19,9.9L48.9,36.7L48.9,36.7z M20.7,23.1h18v-5h-18C20.7,18.1,20.7,23.1,20.7,23.1z M20.7,32h18v-5h-18V32z"/>
</svg>
